<svg xmlns="http://www.w3.org/2000/svg" width="256" height="256" viewBox="0 0 500 500" fill="none">
  <circle cx="250" cy="250" r="250" fill="#4E6B45"/>
  <path d="M223.814 38.6131C227.124 38.1964 232.232 37.6916 235.158 37.4832C238.089 37.2795 244.127 37.085 248.585 37.0526C253.04 37.0202 259.814 37.2008 263.634 37.4555C267.453 37.7055 273.181 38.2427 276.367 38.6409C279.548 39.0392 284.969 39.8727 288.405 40.4932C291.841 41.1137 297.675 42.3687 301.37 43.2856C305.064 44.2024 310.06 45.5546 312.482 46.2909C314.904 47.0272 320.372 48.9304 324.646 50.5234C328.915 52.1163 332.406 53.626 332.41 53.8807C332.41 54.1353 330.012 60.5952 327.081 68.2359C324.15 75.8766 321.738 82.2346 321.724 82.3596C321.71 82.4893 345.204 105.703 373.925 133.955C410.216 169.644 426.718 185.574 428.005 186.157C429.024 186.616 430.589 186.996 431.478 187C432.367 187.005 433.881 186.801 434.835 186.546C435.789 186.296 437.437 185.305 438.497 184.351C439.553 183.397 440.799 181.781 441.262 180.763C442.063 179.012 442.109 176.475 442.118 134.803C442.127 99.6878 442.243 90.7459 442.706 90.9543C443.026 91.0978 444.873 93.2326 446.813 95.7008C448.749 98.1689 451.93 102.429 453.874 105.166C455.814 107.903 458.514 111.862 459.87 113.964C461.222 116.067 463.723 120.128 468.519 128.204V152.747C468.519 170.167 468.682 177.929 469.07 179.489C469.464 181.068 470.214 182.281 471.733 183.786C472.951 184.995 474.627 186.116 475.696 186.44C476.715 186.745 478.28 186.996 479.169 186.996C480.058 186.996 481.729 186.57 482.873 186.056C484.017 185.537 486.059 184.032 487.406 182.707C489.392 180.749 489.93 180.429 490.277 180.994C490.508 181.374 491.457 184.708 492.388 188.403C493.319 192.099 494.777 198.767 497.18 211.325L486.887 221.513C478.863 229.45 476.178 232.418 474.715 234.942C473.682 236.725 472.293 239.536 471.631 241.194C470.969 242.851 470.052 245.556 469.603 247.214C468.834 250.015 468.77 254.451 468.519 371.78L465.436 376.99C463.741 379.856 460.481 385.015 458.194 388.451C455.911 391.887 452.328 396.994 450.23 399.796C448.137 402.598 444.336 407.39 441.789 410.447C439.243 413.503 434.96 418.296 427.385 426.191L424.222 423.135C422.482 421.454 407.308 407.099 390.501 391.225C373.693 375.355 358.761 361.208 354.691 357.193L349.445 362.69C346.56 365.714 342.324 369.701 340.032 371.553C337.74 373.401 333.674 376.341 331.003 378.082C328.331 379.824 323.641 382.509 320.585 384.056C317.529 385.598 312.269 387.895 302.773 391.461L302.763 395.397C302.759 397.629 302.37 400.935 301.87 403.037C301.383 405.075 300.434 407.992 299.754 409.521C299.078 411.049 297.628 413.651 296.531 415.309C295.429 416.967 292.887 419.879 290.878 421.792C288.025 424.506 286.164 425.793 282.377 427.673C279.705 429.002 276.172 430.461 274.514 430.914C271.82 431.66 269.273 431.748 250.206 431.748C229.291 431.748 228.842 431.729 225.203 430.674C223.166 430.081 219.633 428.622 217.346 427.432C214.567 425.983 212.044 424.177 209.706 421.977C207.789 420.171 205.386 417.509 204.367 416.059C203.348 414.614 202.409 413.429 202.284 413.429C202.158 413.429 198.612 422.399 186.772 453.286L185.383 452.998C184.619 452.841 180.346 451.359 175.891 449.701C171.433 448.044 164.77 445.298 161.075 443.593C157.38 441.889 151.754 439.069 148.573 437.328C145.388 435.587 140.595 432.799 137.924 431.141C135.252 429.479 130.043 425.973 126.348 423.348C122.653 420.722 116.824 416.23 113.384 413.373C109.944 410.512 103.688 404.723 99.4794 400.509C95.2705 396.295 89.6541 390.243 87.0056 387.061C84.3526 383.876 80.6345 379.189 78.7408 376.642C76.847 374.095 73.7263 369.618 71.8047 366.686C69.8832 363.755 66.8736 358.86 65.1187 355.804C63.3639 352.748 60.4098 347.121 58.5439 343.301C56.6825 339.481 53.909 333.229 52.3765 329.409C50.8439 325.589 48.6075 319.444 47.4083 315.748C46.209 312.053 44.4357 305.908 43.468 302.088C42.5003 298.267 41.1714 292.122 40.5093 288.427C39.8518 284.732 38.9998 279.212 38.6202 276.156C38.2358 273.099 37.7173 267.579 37.4626 263.884C37.2033 260.189 36.995 254.044 36.9996 250.223C36.9996 246.403 37.2079 240.152 37.458 236.331C37.7126 232.511 38.2312 226.885 38.6155 223.828C38.9998 220.772 39.8518 215.252 40.5093 211.557C41.1668 207.862 42.6114 201.3 43.7134 196.97C44.82 192.64 46.5887 186.491 47.6398 183.309C48.6954 180.124 50.7096 174.604 52.1218 171.038C53.5294 167.472 56.5205 160.804 58.7615 156.22C61.0071 151.635 64.5863 144.967 66.7162 141.401C68.8507 137.836 71.5084 133.562 72.6243 131.908C73.7402 130.255 76.3377 126.606 78.3935 123.805C80.4493 121.003 84.1951 116.21 86.7139 113.154C89.2374 110.098 94.965 103.939 99.447 99.4702C103.929 95.0015 110.221 89.1668 113.43 86.5041C116.639 83.8415 121.996 79.6831 125.339 77.2658C128.682 74.844 134.706 70.8291 138.72 68.3424C142.739 65.8511 150.194 61.7529 155.287 59.2338C160.38 56.7147 167.15 53.6074 170.335 52.3294C173.516 51.0559 179.248 48.9767 183.068 47.7079C186.888 46.4437 193.454 44.5544 197.653 43.5125C201.853 42.4705 208.104 41.1137 211.544 40.4932C214.984 39.8727 220.503 39.0253 223.814 38.6131Z" fill="#2D4D39"/>
  <path d="M361.53 169.765C362.021 167.917 362.558 165.259 362.72 163.86L363.016 161.313L373.517 171.747C379.291 177.484 394.932 192.904 408.267 206.014C421.602 219.123 433.404 231.099 434.488 232.627C435.576 234.155 437.215 236.915 438.136 238.762C439.058 240.61 440.28 243.736 441.896 249.297V383.195L440.623 385.126C439.752 386.45 438.585 387.423 436.918 388.214C435.58 388.849 433.863 389.368 433.099 389.363C432.335 389.363 430.881 389.104 429.871 388.789C428.427 388.344 424.093 384.487 409.73 370.886C399.664 361.356 386.473 348.853 380.416 343.102C374.365 337.355 369.415 332.599 369.42 332.535C369.429 332.47 370.258 329.969 371.262 326.978C372.272 323.986 373.619 318.934 374.258 315.748C374.897 312.567 375.666 307.459 375.962 304.403C376.291 301.018 376.397 295.498 376.235 290.279C376.082 285.57 375.629 279.522 375.221 276.85C374.814 274.178 373.957 269.904 373.318 267.357C372.684 264.81 371.637 261.166 371.003 259.253C370.364 257.345 368.294 252.655 366.405 248.834C364.512 245.014 361.613 240.013 359.96 237.72C358.312 235.428 355.339 231.798 353.357 229.649C351.376 227.505 348.088 224.352 346.051 222.647C344.014 220.939 340.573 218.346 338.411 216.882C336.249 215.414 332.966 213.409 327.762 210.631L329.73 208.815C330.813 207.815 336.536 202.138 342.453 196.197C348.366 190.256 354.066 184.245 355.122 182.846C356.177 181.448 357.849 178.683 358.835 176.711C359.826 174.738 361.039 171.612 361.53 169.765Z" fill="#4E6B45"/>
  <path d="M230.643 102.29C231.092 101.665 231.926 100.891 232.495 100.572C233.273 100.137 237.704 99.9838 250.09 99.9745C262.416 99.9606 266.948 100.104 267.837 100.535C268.495 100.854 269.379 101.632 269.805 102.271C270.481 103.281 270.597 105.314 270.847 133.066L274.417 133.441C276.38 133.649 280.487 134.242 283.543 134.761C286.599 135.275 291.808 136.386 295.119 137.219C298.429 138.058 303.115 139.6 305.536 140.651C307.958 141.702 311.602 143.522 313.639 144.693C315.677 145.87 319.413 148.213 321.941 149.903C324.465 151.593 327.34 153.705 328.326 154.599C329.53 155.687 330.206 156.752 330.387 157.84C330.535 158.729 330.526 160.243 330.364 161.197C330.118 162.693 328.613 164.42 319.543 173.636C313.75 179.521 308.435 184.624 307.736 184.981C307.037 185.333 305.68 185.62 304.726 185.62C303.411 185.615 301.809 184.893 298.128 182.642C295.457 181.012 291.289 178.725 288.868 177.567C286.446 176.409 282.696 174.96 280.533 174.339C278.371 173.719 273.991 172.779 270.81 172.251C267.629 171.718 262.105 171.047 258.54 170.755C254.901 170.454 249.317 170.348 245.807 170.51C242.371 170.667 237.783 171.103 235.621 171.478C233.454 171.853 230.018 172.719 227.981 173.404C225.943 174.089 222.851 175.502 221.105 176.548C219.359 177.59 216.641 179.799 215.067 181.457C213.47 183.138 211.544 185.796 210.715 187.477C209.895 189.13 208.914 191.945 208.539 193.728C208.164 195.511 207.853 198.322 207.853 199.98C207.853 201.633 208.14 204.342 208.483 206C208.83 207.653 209.701 210.26 210.414 211.788C211.132 213.316 212.771 215.627 214.062 216.924C215.364 218.234 217.845 220.012 219.646 220.924C221.429 221.827 224.346 223.013 226.129 223.564C227.911 224.11 231.037 224.851 233.074 225.208C235.111 225.569 245.423 226.602 255.993 227.509C266.564 228.417 278.126 229.589 281.691 230.121C285.256 230.649 290.882 231.77 294.193 232.608C297.503 233.446 302.295 234.905 304.842 235.854C307.389 236.799 311.449 238.618 313.871 239.897C316.292 241.175 319.622 243.184 321.279 244.361C322.937 245.541 325.821 247.968 327.697 249.751C329.567 251.538 332.104 254.354 333.327 256.012C334.554 257.669 336.411 260.689 337.457 262.726C338.503 264.764 339.962 268.306 340.698 270.598C341.434 272.891 342.421 276.641 342.884 278.934C343.56 282.254 343.731 285.264 343.731 293.752C343.731 301.985 343.55 305.296 342.935 308.339C342.499 310.501 341.606 313.942 340.948 315.979C340.295 318.017 338.749 321.768 337.508 324.315C336.272 326.862 333.938 330.821 332.322 333.113C330.706 335.405 327.396 339.258 324.965 341.68C322.534 344.097 318.575 347.482 316.167 349.191C313.76 350.904 309.597 353.419 306.926 354.776C304.254 356.137 300.397 357.897 298.36 358.689C296.322 359.48 292.572 360.745 290.025 361.504C287.479 362.259 282.112 363.477 270.805 365.528V380.231C270.81 392.275 270.685 395.225 270.116 396.554C269.722 397.471 268.819 398.476 268.032 398.869C266.874 399.448 263.893 399.564 250.206 399.564C236.519 399.564 233.537 399.448 232.379 398.869C231.592 398.476 230.689 397.471 230.296 396.554C229.726 395.23 229.601 392.308 229.601 380.578C229.601 369.497 229.467 366.181 229.023 366.042C228.703 365.945 225.943 365.616 222.888 365.315C219.832 365.01 214.521 364.25 211.081 363.625C207.64 362.995 202.431 361.879 199.505 361.138C196.579 360.402 192.615 359.133 190.708 358.323C188.795 357.512 185.67 356.003 183.762 354.966C181.85 353.933 178.206 351.738 175.66 350.094C173.113 348.455 169.464 345.963 167.557 344.56C165.645 343.157 162.653 340.842 160.903 339.416C159.148 337.985 157.431 336.243 157.083 335.544C156.731 334.845 156.444 333.437 156.444 332.419C156.444 331.4 156.639 330.2 156.875 329.756C157.111 329.311 162.371 323.889 168.566 317.702C174.761 311.52 180.142 306.264 180.521 306.019C180.901 305.773 182.309 305.57 183.647 305.57C185.971 305.56 186.254 305.704 190.129 308.83C192.356 310.626 196.056 313.358 198.348 314.905C200.64 316.447 204.283 318.6 206.45 319.684C208.617 320.772 211.743 322.078 213.396 322.587C215.049 323.101 218.438 323.958 220.92 324.495C223.402 325.033 227.569 325.792 230.18 326.186C232.792 326.575 238.051 327.093 241.871 327.339C246.465 327.626 251.09 327.612 255.53 327.292C259.225 327.028 264.328 326.412 266.874 325.922C269.421 325.435 273.065 324.528 274.977 323.907C276.885 323.291 279.908 322.115 281.691 321.296C283.474 320.476 286.08 319.026 287.479 318.068C288.877 317.114 290.975 315.313 292.137 314.072C293.299 312.831 294.79 310.876 295.452 309.728C296.114 308.58 297.114 306.185 297.674 304.403C298.48 301.842 298.688 300.045 298.684 295.836C298.675 292.062 298.424 289.635 297.813 287.5C297.341 285.843 296.23 283.268 295.341 281.777C294.456 280.286 292.688 278.128 291.414 276.979C290.141 275.836 287.432 274.09 285.395 273.104C283.21 272.043 279.603 270.834 276.598 270.158C272.838 269.306 265.796 268.514 249.743 267.125C237.774 266.093 225.48 264.847 222.425 264.351C219.369 263.861 214.47 262.851 211.544 262.106C208.617 261.365 204.135 259.98 201.589 259.035C199.042 258.091 194.981 256.271 192.56 254.993C190.138 253.715 186.804 251.705 185.152 250.524C183.499 249.343 180.915 247.227 179.41 245.824C177.91 244.425 175.65 241.925 174.391 240.267C173.132 238.609 170.979 234.965 169.608 232.163C168.237 229.362 166.603 225.092 165.978 222.67C165.348 220.248 164.57 216.604 164.246 214.567C163.922 212.52 163.663 207.028 163.667 202.295C163.672 196.095 163.899 192.575 164.482 189.561C164.922 187.268 165.788 183.726 166.404 181.688C167.015 179.651 168.487 176.006 169.668 173.585C170.849 171.163 173.085 167.31 174.636 165.018C176.243 162.647 179.66 158.65 182.577 155.747C185.42 152.913 189.55 149.389 191.865 147.824C194.157 146.273 197.908 144.054 200.2 142.892C202.492 141.734 205.617 140.266 207.145 139.637C208.673 139.007 211.9 137.859 214.322 137.09C216.743 136.316 221.161 135.196 229.574 133.529L229.703 118.479C229.819 105.004 229.916 103.309 230.643 102.29Z" fill="white"/>
</svg>
