<svg width="256" height="256" viewBox="0 0 256 256" fill="none" xmlns="http://www.w3.org/2000/svg">
  <path d="M255.98 127.99C255.98 57.3031 198.677 0 127.99 0C57.3031 0 0 57.3031 0 127.99C0 198.677 57.3031 255.98 127.99 255.98C198.677 255.98 255.98 198.677 255.98 127.99Z" fill="url(#paint0_radial_32_6)" />
  <path d="M91.1129 68.8147C92.3334 68.8147 93.3231 69.8038 93.3231 71.0243V109.291C93.3231 109.927 93.6763 110.513 94.2379 110.811L102.547 115.226C103.096 115.517 103.759 115.492 104.282 115.156L126.14 101.102C126.845 100.65 127.746 100.634 128.465 101.062L152.203 115.191C152.731 115.505 153.387 115.517 153.923 115.216L161.748 110.822C162.29 110.517 162.628 109.943 162.628 109.321V71.0243C162.628 69.8038 163.617 68.8147 164.837 68.8147H180.386C181.606 68.8147 182.596 69.8038 182.596 71.0243V120.94C182.595 121.709 182.197 122.424 181.541 122.825L128.485 155.213C127.755 155.657 126.834 155.642 126.12 155.173L111.511 145.533C110.147 144.633 110.197 142.613 111.606 141.784L132.695 129.39C133.834 128.72 133.823 127.069 132.675 126.415L128.2 123.875C127.648 123.562 126.967 123.576 126.43 123.915L94.1227 144.424C93.6261 144.739 93.3231 145.285 93.3231 145.873V184.951C93.3231 186.171 92.3334 187.16 91.1129 187.16H75.0195C73.7989 187.16 72.8093 186.171 72.8093 184.951V134.979C72.8104 134.245 73.1754 133.56 73.7841 133.15L79.4541 129.335C80.4759 128.646 80.4631 127.136 79.429 126.465L73.8143 122.825C73.1882 122.418 72.8098 121.723 72.8093 120.976V71.0243C72.8093 69.8038 73.7989 68.8147 75.0195 68.8147H91.1129ZM179.291 133.054C180.764 132.213 182.596 133.278 182.596 134.974V184.951C182.596 186.171 181.606 187.16 180.386 187.16H164.837C163.617 187.16 162.628 186.171 162.628 184.951V143.859C162.628 143.066 163.054 142.337 163.742 141.944L179.291 133.054Z" fill="white" stroke="white" stroke-width="0.0959201" />
  <defs>
    <radialGradient id="paint0_radial_32_6" cx="0" cy="0" r="1" gradientUnits="userSpaceOnUse" gradientTransform="translate(60.2621 18.1319) rotate(64.4069) scale(253.08)">
      <stop stop-color="#C4B19F" />
      <stop offset="0.265908" stop-color="#A08472" />
      <stop offset="0.74564" stop-color="#584656" />
      <stop offset="1" stop-color="#3E3548" />
    </radialGradient>
  </defs>
</svg>
